<svg id="visual" viewBox="0 0 900 900" width="900" height="900" xmlns="http://www.w3.org/2000/svg" xmlns:xlink="http://www.w3.org/1999/xlink" version="1.1"><rect x="0" y="0" width="900" height="900" fill="#FFFFFF"></rect><defs><linearGradient id="grad1_0" x1="0%" y1="0%" x2="100%" y2="100%"><stop offset="30%" stop-color="#073f78" stop-opacity="1"></stop><stop offset="70%" stop-color="#073f78" stop-opacity="1"></stop></linearGradient></defs><defs><linearGradient id="grad1_1" x1="0%" y1="0%" x2="100%" y2="100%"><stop offset="30%" stop-color="#073f78" stop-opacity="1"></stop><stop offset="70%" stop-color="#6879a4" stop-opacity="1"></stop></linearGradient></defs><defs><linearGradient id="grad1_2" x1="0%" y1="0%" x2="100%" y2="100%"><stop offset="30%" stop-color="#b3bad1" stop-opacity="1"></stop><stop offset="70%" stop-color="#6879a4" stop-opacity="1"></stop></linearGradient></defs><defs><linearGradient id="grad1_3" x1="0%" y1="0%" x2="100%" y2="100%"><stop offset="30%" stop-color="#b3bad1" stop-opacity="1"></stop><stop offset="70%" stop-color="#ffffff" stop-opacity="1"></stop></linearGradient></defs><defs><linearGradient id="grad2_0" x1="0%" y1="0%" x2="100%" y2="100%"><stop offset="30%" stop-color="#073f78" stop-opacity="1"></stop><stop offset="70%" stop-color="#073f78" stop-opacity="1"></stop></linearGradient></defs><defs><linearGradient id="grad2_1" x1="0%" y1="0%" x2="100%" y2="100%"><stop offset="30%" stop-color="#6879a4" stop-opacity="1"></stop><stop offset="70%" stop-color="#073f78" stop-opacity="1"></stop></linearGradient></defs><defs><linearGradient id="grad2_2" x1="0%" y1="0%" x2="100%" y2="100%"><stop offset="30%" stop-color="#6879a4" stop-opacity="1"></stop><stop offset="70%" stop-color="#b3bad1" stop-opacity="1"></stop></linearGradient></defs><defs><linearGradient id="grad2_3" x1="0%" y1="0%" x2="100%" y2="100%"><stop offset="30%" stop-color="#ffffff" stop-opacity="1"></stop><stop offset="70%" stop-color="#b3bad1" stop-opacity="1"></stop></linearGradient></defs><g transform="translate(900, 0)"><path d="M0 636.4C-128.4 629.6 -256.8 622.9 -318.2 551.1C-379.6 479.4 -373.8 342.7 -415.7 240C-457.5 137.3 -547 68.7 -636.4 0L0 0Z" fill="#d9dce8"></path><path d="M0 477.3C-96.3 472.2 -192.6 467.2 -238.6 413.4C-284.7 359.5 -280.4 257 -311.8 180C-343.2 103 -410.2 51.5 -477.3 0L0 0Z" fill="#8d99ba"></path><path d="M0 318.2C-64.2 314.8 -128.4 311.4 -159.1 275.6C-189.8 239.7 -186.9 171.3 -207.8 120C-228.8 68.7 -273.5 34.3 -318.2 0L0 0Z" fill="#415b8e"></path><path d="M0 159.1C-32.1 157.4 -64.2 155.7 -79.5 137.8C-94.9 119.8 -93.5 85.7 -103.9 60C-114.4 34.3 -136.7 17.2 -159.1 0L0 0Z" fill="#073f78"></path></g><g transform="translate(0, 900)"><path d="M0 -636.4C114.8 -621.8 229.6 -607.1 318.2 -551.1C406.8 -495.1 469.2 -397.8 517.9 -299C566.6 -200.2 601.5 -100.1 636.4 0L0 0Z" fill="#d9dce8"></path><path d="M0 -477.3C86.1 -466.3 172.2 -455.4 238.6 -413.4C305.1 -371.3 351.9 -298.3 388.4 -224.3C424.9 -150.2 451.1 -75.1 477.3 0L0 0Z" fill="#8d99ba"></path><path d="M0 -318.2C57.4 -310.9 114.8 -303.6 159.1 -275.6C203.4 -247.6 234.6 -198.9 258.9 -149.5C283.3 -100.1 300.7 -50.1 318.2 0L0 0Z" fill="#415b8e"></path><path d="M0 -159.1C28.7 -155.4 57.4 -151.8 79.5 -137.8C101.7 -123.8 117.3 -99.4 129.5 -74.8C141.6 -50.1 150.4 -25 159.1 0L0 0Z" fill="#073f78"></path></g></svg>